<mxfile host="app.diagrams.net" modified="2023-12-06T08:03:44.342Z" agent="Mozilla/5.0 (Windows NT 10.0; Win64; x64) AppleWebKit/537.36 (KHTML, like Gecko) Chrome/119.0.0.0 Safari/537.36" etag="9PJBScmAZepG-LqxGlME" version="22.1.5" type="github">
  <diagram name="第 1 页" id="X_QzJpdWmovDi-tY5itf">
    <mxGraphModel dx="1097" dy="471" grid="1" gridSize="10" guides="1" tooltips="1" connect="1" arrows="1" fold="1" page="1" pageScale="1" pageWidth="827" pageHeight="1169" math="0" shadow="0">
      <root>
        <mxCell id="0" />
        <mxCell id="1" parent="0" />
        <mxCell id="oDHibSq6DUmz1LsjLTxn-2" value="non-registered user" style="rounded=0;whiteSpace=wrap;html=1;" vertex="1" parent="1">
          <mxGeometry x="200" y="140" width="120" height="60" as="geometry" />
        </mxCell>
        <mxCell id="oDHibSq6DUmz1LsjLTxn-8" value="&#xa;&lt;span style=&quot;color: rgb(0, 0, 0); font-family: Helvetica; font-size: 12px; font-style: normal; font-variant-ligatures: normal; font-variant-caps: normal; font-weight: 400; letter-spacing: normal; orphans: 2; text-align: left; text-indent: 0px; text-transform: none; widows: 2; word-spacing: 0px; -webkit-text-stroke-width: 0px; background-color: rgb(251, 251, 251); text-decoration-thickness: initial; text-decoration-style: initial; text-decoration-color: initial; float: none; display: inline !important;&quot;&gt;article&lt;/span&gt;&#xa;&#xa;" style="edgeStyle=orthogonalEdgeStyle;rounded=0;orthogonalLoop=1;jettySize=auto;html=1;exitX=0.5;exitY=0;exitDx=0;exitDy=0;entryX=0.5;entryY=1;entryDx=0;entryDy=0;" edge="1" parent="1" source="oDHibSq6DUmz1LsjLTxn-3" target="oDHibSq6DUmz1LsjLTxn-4">
          <mxGeometry x="0.1429" y="-30" relative="1" as="geometry">
            <mxPoint as="offset" />
          </mxGeometry>
        </mxCell>
        <mxCell id="oDHibSq6DUmz1LsjLTxn-35" style="edgeStyle=orthogonalEdgeStyle;rounded=0;orthogonalLoop=1;jettySize=auto;html=1;exitX=0.5;exitY=1;exitDx=0;exitDy=0;entryX=1;entryY=0.5;entryDx=0;entryDy=0;" edge="1" parent="1" source="oDHibSq6DUmz1LsjLTxn-3" target="oDHibSq6DUmz1LsjLTxn-25">
          <mxGeometry relative="1" as="geometry" />
        </mxCell>
        <mxCell id="oDHibSq6DUmz1LsjLTxn-3" value="" style="shape=partialRectangle;whiteSpace=wrap;html=1;left=0;right=0;fillColor=none;" vertex="1" parent="1">
          <mxGeometry x="430" y="350" width="80" height="20" as="geometry" />
        </mxCell>
        <mxCell id="oDHibSq6DUmz1LsjLTxn-7" style="edgeStyle=orthogonalEdgeStyle;rounded=0;orthogonalLoop=1;jettySize=auto;html=1;exitX=0;exitY=0.5;exitDx=0;exitDy=0;entryX=1;entryY=0.5;entryDx=0;entryDy=0;" edge="1" parent="1" source="oDHibSq6DUmz1LsjLTxn-4" target="oDHibSq6DUmz1LsjLTxn-2">
          <mxGeometry relative="1" as="geometry" />
        </mxCell>
        <mxCell id="oDHibSq6DUmz1LsjLTxn-4" value="2.4&lt;br&gt;view article" style="ellipse;whiteSpace=wrap;html=1;" vertex="1" parent="1">
          <mxGeometry x="410" y="130" width="120" height="80" as="geometry" />
        </mxCell>
        <mxCell id="oDHibSq6DUmz1LsjLTxn-10" value="article" style="text;whiteSpace=wrap;" vertex="1" parent="1">
          <mxGeometry x="340" y="140" width="70" height="40" as="geometry" />
        </mxCell>
        <mxCell id="oDHibSq6DUmz1LsjLTxn-13" value="article information" style="text;whiteSpace=wrap;" vertex="1" parent="1">
          <mxGeometry x="420" y="320" width="130" height="40" as="geometry" />
        </mxCell>
        <mxCell id="oDHibSq6DUmz1LsjLTxn-18" style="edgeStyle=orthogonalEdgeStyle;rounded=0;orthogonalLoop=1;jettySize=auto;html=1;exitX=1;exitY=0.5;exitDx=0;exitDy=0;entryX=0;entryY=0.5;entryDx=0;entryDy=0;" edge="1" parent="1" source="oDHibSq6DUmz1LsjLTxn-14" target="oDHibSq6DUmz1LsjLTxn-15">
          <mxGeometry relative="1" as="geometry" />
        </mxCell>
        <mxCell id="oDHibSq6DUmz1LsjLTxn-14" value="registered user" style="rounded=0;whiteSpace=wrap;html=1;" vertex="1" parent="1">
          <mxGeometry y="320" width="120" height="60" as="geometry" />
        </mxCell>
        <mxCell id="oDHibSq6DUmz1LsjLTxn-15" value="2,1&lt;br&gt;write article" style="ellipse;whiteSpace=wrap;html=1;" vertex="1" parent="1">
          <mxGeometry x="200" y="310" width="120" height="80" as="geometry" />
        </mxCell>
        <mxCell id="oDHibSq6DUmz1LsjLTxn-17" value="article" style="text;whiteSpace=wrap;" vertex="1" parent="1">
          <mxGeometry x="350" y="320" width="70" height="40" as="geometry" />
        </mxCell>
        <mxCell id="oDHibSq6DUmz1LsjLTxn-19" value="&lt;span style=&quot;color: rgb(0, 0, 0); font-family: Helvetica; font-size: 12px; font-style: normal; font-variant-ligatures: normal; font-variant-caps: normal; font-weight: 400; letter-spacing: normal; orphans: 2; text-align: left; text-indent: 0px; text-transform: none; widows: 2; word-spacing: 0px; -webkit-text-stroke-width: 0px; background-color: rgb(251, 251, 251); text-decoration-thickness: initial; text-decoration-style: initial; text-decoration-color: initial; float: none; display: inline !important;&quot;&gt;article&lt;/span&gt;" style="text;whiteSpace=wrap;html=1;" vertex="1" parent="1">
          <mxGeometry x="130" y="320" width="70" height="40" as="geometry" />
        </mxCell>
        <mxCell id="oDHibSq6DUmz1LsjLTxn-20" value="2.3&lt;br&gt;edit article" style="ellipse;whiteSpace=wrap;html=1;" vertex="1" parent="1">
          <mxGeometry x="580" y="430" width="120" height="80" as="geometry" />
        </mxCell>
        <mxCell id="oDHibSq6DUmz1LsjLTxn-23" value="article" style="edgeStyle=orthogonalEdgeStyle;rounded=0;orthogonalLoop=1;jettySize=auto;html=1;exitX=0.5;exitY=0;exitDx=0;exitDy=0;entryX=0.5;entryY=1;entryDx=0;entryDy=0;" edge="1" parent="1" source="oDHibSq6DUmz1LsjLTxn-22" target="oDHibSq6DUmz1LsjLTxn-20">
          <mxGeometry y="-20" relative="1" as="geometry">
            <mxPoint as="offset" />
          </mxGeometry>
        </mxCell>
        <mxCell id="oDHibSq6DUmz1LsjLTxn-22" value="administrator" style="rounded=0;whiteSpace=wrap;html=1;" vertex="1" parent="1">
          <mxGeometry x="580" y="610" width="120" height="60" as="geometry" />
        </mxCell>
        <mxCell id="oDHibSq6DUmz1LsjLTxn-34" style="edgeStyle=orthogonalEdgeStyle;rounded=0;orthogonalLoop=1;jettySize=auto;html=1;exitX=0.5;exitY=1;exitDx=0;exitDy=0;entryX=0;entryY=0.5;entryDx=0;entryDy=0;" edge="1" parent="1" source="oDHibSq6DUmz1LsjLTxn-25" target="oDHibSq6DUmz1LsjLTxn-22">
          <mxGeometry relative="1" as="geometry" />
        </mxCell>
        <mxCell id="oDHibSq6DUmz1LsjLTxn-36" style="edgeStyle=orthogonalEdgeStyle;rounded=0;orthogonalLoop=1;jettySize=auto;html=1;exitX=0;exitY=0.5;exitDx=0;exitDy=0;entryX=0.5;entryY=1;entryDx=0;entryDy=0;" edge="1" parent="1" source="oDHibSq6DUmz1LsjLTxn-25" target="oDHibSq6DUmz1LsjLTxn-14">
          <mxGeometry relative="1" as="geometry" />
        </mxCell>
        <mxCell id="oDHibSq6DUmz1LsjLTxn-25" value="2.2&lt;br&gt;view article" style="ellipse;whiteSpace=wrap;html=1;" vertex="1" parent="1">
          <mxGeometry x="200" y="440" width="120" height="80" as="geometry" />
        </mxCell>
        <mxCell id="oDHibSq6DUmz1LsjLTxn-27" style="edgeStyle=orthogonalEdgeStyle;rounded=0;orthogonalLoop=1;jettySize=auto;html=1;exitX=0.5;exitY=0;exitDx=0;exitDy=0;entryX=0.692;entryY=0.75;entryDx=0;entryDy=0;entryPerimeter=0;" edge="1" parent="1" source="oDHibSq6DUmz1LsjLTxn-20" target="oDHibSq6DUmz1LsjLTxn-13">
          <mxGeometry relative="1" as="geometry">
            <Array as="points">
              <mxPoint x="640" y="350" />
            </Array>
          </mxGeometry>
        </mxCell>
        <mxCell id="oDHibSq6DUmz1LsjLTxn-31" style="edgeStyle=orthogonalEdgeStyle;rounded=0;orthogonalLoop=1;jettySize=auto;html=1;exitX=1;exitY=0.5;exitDx=0;exitDy=0;entryX=0.077;entryY=0.751;entryDx=0;entryDy=0;entryPerimeter=0;" edge="1" parent="1" source="oDHibSq6DUmz1LsjLTxn-15" target="oDHibSq6DUmz1LsjLTxn-13">
          <mxGeometry relative="1" as="geometry" />
        </mxCell>
        <mxCell id="oDHibSq6DUmz1LsjLTxn-37" value="&lt;span style=&quot;color: rgb(0, 0, 0); font-family: Helvetica; font-size: 12px; font-style: normal; font-variant-ligatures: normal; font-variant-caps: normal; font-weight: 400; letter-spacing: normal; orphans: 2; text-align: left; text-indent: 0px; text-transform: none; widows: 2; word-spacing: 0px; -webkit-text-stroke-width: 0px; background-color: rgb(251, 251, 251); text-decoration-thickness: initial; text-decoration-style: initial; text-decoration-color: initial; float: none; display: inline !important;&quot;&gt;article&lt;/span&gt;" style="text;whiteSpace=wrap;html=1;" vertex="1" parent="1">
          <mxGeometry x="110" y="450" width="70" height="40" as="geometry" />
        </mxCell>
      </root>
    </mxGraphModel>
  </diagram>
</mxfile>
